<?xml version="1.0" standalone="no"?>
<!DOCTYPE svg PUBLIC "-//W3C//DTD SVG 20010904//EN"
 "http://www.w3.org/TR/2001/REC-SVG-20010904/DTD/svg10.dtd">
<svg version="1.0" xmlns="http://www.w3.org/2000/svg"
 width="512.000000pt" height="512.000000pt" viewBox="0 0 512.000000 512.000000"
 preserveAspectRatio="xMidYMid meet">
<metadata>
Created by potrace 1.11, written by Peter Selinger 2001-2013
</metadata>
<g transform="translate(0.000000,512.000000) scale(0.100000,-0.100000)"
fill="#000000" stroke="none">
<path d="M510 5000 c0 -14 -4 -19 -12 -14 -9 6 -9 3 1 -9 8 -10 10 -24 5 -34
-11 -26 -13 -53 -3 -47 11 6 12 -10 2 -20 -4 -3 -8 -17 -10 -29 -2 -17 -1 -19
7 -7 8 13 10 13 10 -2 0 -9 -6 -19 -12 -21 -10 -4 -10 -6 0 -6 6 -1 12 -6 12
-12 0 -5 -6 -7 -12 -3 -9 5 -9 2 1 -9 11 -14 11 -20 1 -32 -7 -8 -8 -15 -3
-15 11 0 11 -80 0 -97 -5 -8 -4 -13 3 -13 6 0 8 -5 5 -10 -5 -8 -12 -7 -23 2
-9 7 -13 8 -9 2 5 -9 -28 -12 -121 -12 -70 0 -137 -1 -148 -1 -19 -1 -21 -6
-18 -38 3 -21 5 -53 6 -70 0 -18 4 -33 8 -33 3 0 7 -7 7 -15 0 -8 -5 -15 -11
-15 -8 0 -8 -2 0 -8 6 -4 14 -21 17 -39 5 -27 4 -31 -11 -26 -10 3 -8 -1 6
-12 17 -12 23 -24 19 -41 -2 -14 0 -27 5 -30 5 -3 1 -13 -9 -21 -10 -8 -13
-12 -7 -9 6 3 16 -6 23 -20 15 -33 14 -34 -9 -29 -12 2 -18 0 -15 -6 4 -5 11
-7 16 -4 12 8 27 -44 34 -122 1 -13 4 -26 8 -29 4 -4 -1 -13 -11 -21 -10 -8
-12 -12 -4 -11 8 2 18 -7 23 -19 8 -22 1 -28 -24 -24 -5 1 -6 -3 -2 -8 3 -6
12 -8 19 -5 9 4 15 -8 20 -36 3 -23 4 -45 1 -51 -4 -5 -1 -9 6 -9 10 0 10 -3
1 -12 -7 -7 -12 -17 -12 -23 0 -5 5 -3 10 5 9 13 10 13 11 0 0 -8 2 -23 4 -33
2 -9 -1 -15 -6 -11 -5 3 -9 1 -9 -5 0 -5 5 -11 10 -13 17 -5 22 -59 8 -76 -10
-12 -10 -14 0 -8 6 4 13 2 13 -3 5 -41 21 -72 34 -68 7 3 18 0 24 -6 6 -6 11
-7 11 -3 0 5 7 3 15 -4 11 -9 19 -10 26 -3 8 8 6 11 -6 10 -10 -1 -20 5 -23
13 -5 13 -3 13 11 1 14 -11 17 -11 17 0 0 9 3 10 8 4 4 -6 37 -10 74 -9 37 0
65 -3 62 -7 -2 -5 -10 -6 -18 -3 -7 3 -17 -7 -24 -23 -11 -27 -11 -27 4 -6 9
12 22 19 30 16 20 -8 17 -23 -3 -17 -15 5 -15 4 -4 -4 18 -13 24 -49 11 -57
-6 -3 -10 -12 -10 -18 0 -7 4 -6 10 3 8 12 10 11 10 -5 0 -12 -6 -27 -13 -34
-9 -11 -9 -13 1 -7 8 5 12 -1 12 -18 0 -13 -6 -27 -12 -29 -10 -4 -9 -6 1 -6
11 -1 11 -4 0 -18 -8 -9 -9 -14 -4 -11 16 10 18 -114 3 -124 -10 -6 -10 -8 1
-8 11 0 11 -3 0 -17 -9 -11 -10 -14 -2 -9 9 5 12 -8 12 -53 -1 -43 -5 -59 -13
-54 -7 5 -7 2 1 -8 14 -18 14 -58 -1 -78 -8 -11 -8 -13 0 -8 17 10 18 -194 1
-205 -9 -6 -9 -8 2 -8 11 0 11 -3 0 -17 -8 -9 -9 -14 -3 -10 7 4 11 -10 11
-43 1 -28 -2 -48 -6 -45 -4 2 -8 -2 -8 -10 0 -8 4 -12 9 -9 13 8 10 -10 -5
-25 -6 -8 -7 -11 -1 -8 12 7 14 -87 2 -99 -5 -4 -8 -12 -8 -18 0 -6 5 -4 10 4
8 12 10 10 7 -10 -1 -14 -6 -31 -11 -39 -6 -10 -5 -12 2 -7 7 4 12 1 12 -9 0
-9 -4 -14 -8 -11 -5 3 -9 -1 -9 -9 0 -8 4 -12 9 -9 13 8 10 -10 -5 -25 -6 -8
-7 -11 -1 -8 12 7 14 -87 2 -99 -5 -4 -8 -12 -8 -18 0 -6 5 -4 10 4 8 12 10
10 7 -10 -1 -14 -6 -31 -11 -39 -6 -10 -5 -12 2 -7 7 4 12 1 12 -9 0 -9 -4
-14 -8 -11 -5 3 -9 -1 -9 -9 0 -8 4 -12 9 -9 13 8 10 -10 -4 -25 -7 -8 -8 -11
-2 -8 12 7 14 -87 2 -99 -5 -4 -8 -12 -8 -18 0 -6 5 -4 10 4 8 12 10 10 7 -10
-1 -14 -6 -31 -11 -39 -6 -10 -5 -12 2 -7 7 4 12 1 12 -9 0 -9 -4 -14 -8 -11
-5 3 -9 -1 -9 -9 0 -8 3 -12 7 -10 3 2 7 -16 8 -40 1 -24 -3 -47 -8 -50 -6 -4
-7 -12 -3 -18 11 -18 13 -129 3 -142 -6 -7 -7 -15 -3 -19 11 -11 13 -128 3
-141 -6 -7 -7 -15 -3 -19 11 -11 13 -128 3 -141 -6 -7 -7 -15 -3 -19 12 -12
12 -40 0 -55 -9 -12 -9 -13 0 -7 9 5 12 -8 12 -53 -1 -43 -5 -59 -13 -54 -7 5
-7 2 1 -8 14 -18 14 -58 -1 -78 -8 -11 -8 -13 0 -8 17 10 18 -194 1 -205 -9
-6 -9 -8 2 -8 11 0 11 -3 0 -17 -8 -9 -9 -14 -3 -10 8 5 12 -17 12 -73 0 -59
-2 -78 -11 -73 -9 5 -9 3 0 -8 14 -18 14 -58 -1 -78 -8 -11 -8 -13 0 -8 17 10
18 -194 1 -205 -9 -6 -9 -8 2 -8 11 0 11 -3 0 -17 -8 -9 -9 -14 -3 -10 7 4 11
-11 12 -49 0 -46 -2 -53 -14 -43 -8 6 -11 16 -7 22 4 6 1 7 -6 2 -9 -5 -10
-10 -2 -18 6 -6 11 -13 11 -17 0 -10 -395 -6 -402 5 -5 7 -8 7 -8 -1 0 -6 -13
-10 -30 -9 -31 2 -34 -3 -30 -57 1 -18 -4 -28 -17 -31 -17 -4 -17 -5 0 -6 15
-1 18 -7 14 -36 -3 -25 -1 -35 9 -35 8 0 11 -7 8 -17 -5 -14 -4 -15 4 -4 9 12
355 14 2420 15 1829 1 2408 -2 2401 -11 -7 -7 -6 -14 2 -19 8 -5 9 -3 4 6 -6
10 -4 12 9 7 13 -5 17 -3 13 6 -3 8 5 14 22 15 14 1 28 7 29 12 2 6 8 8 12 5
5 -3 12 -1 15 5 4 6 1 9 -7 8 -9 -2 -14 16 -18 67 l-5 70 -110 1 c-120 0 -150
8 -120 31 18 13 18 13 -1 13 -16 0 -17 2 -4 10 10 6 11 10 3 10 -7 0 -13 5
-13 11 0 5 4 7 10 4 6 -4 7 2 2 17 -12 33 -8 53 8 50 11 -1 10 2 -3 12 -14 10
-15 15 -5 19 10 4 10 6 1 6 -7 1 -13 6 -13 12 0 5 4 7 10 4 6 -4 7 2 2 17 -12
33 -8 53 8 50 11 -1 10 2 -3 12 -14 10 -15 15 -5 19 10 4 10 6 1 6 -7 1 -13 6
-13 12 0 5 4 7 10 4 6 -4 7 2 2 17 -13 41 -8 93 8 90 11 -2 10 2 -3 12 -14 10
-15 15 -5 19 10 4 10 6 1 6 -7 1 -13 6 -13 12 0 5 4 7 10 4 6 -4 7 2 2 17 -11
32 -9 53 5 53 6 0 15 4 20 8 4 5 3 8 -2 7 -6 -1 -17 -2 -25 -1 -13 1 -13 2 0
11 10 6 11 10 3 10 -7 0 -13 5 -13 11 0 5 4 7 10 4 6 -4 7 2 2 17 -11 32 -9
53 5 53 6 0 15 4 20 8 4 5 3 8 -2 7 -6 -1 -17 -2 -25 -1 -13 1 -13 2 0 11 10
6 11 10 3 10 -7 0 -13 5 -13 11 0 5 4 7 10 4 6 -4 7 2 2 17 -12 33 -8 53 8 50
11 -1 10 2 -3 12 -14 10 -15 15 -5 19 10 4 10 6 1 6 -7 1 -13 6 -13 12 0 5 4
7 10 4 6 -4 7 2 2 17 -11 30 -9 49 3 46 6 -2 9 -7 7 -11 -1 -5 3 -5 9 -1 9 5
6 12 -9 25 -15 12 -18 19 -10 22 10 4 10 6 1 6 -7 1 -13 6 -13 12 0 5 4 7 10
4 6 -4 7 2 1 17 -5 15 -5 31 0 41 7 11 6 17 -1 17 -7 0 -8 6 -2 17 5 10 7 33
5 52 -4 31 -3 33 12 17 25 -25 31 -19 7 7 -12 13 -22 34 -22 47 0 23 0 23 15
4 8 -10 15 -14 15 -8 0 6 -9 19 -20 29 -11 10 -17 22 -13 28 4 6 6 42 6 80 -1
62 0 67 14 50 12 -14 12 -12 -1 9 -18 30 -23 85 -6 58 7 -11 10 -11 10 -2 0 8
5 10 13 6 7 -4 9 -3 4 2 -5 5 -12 9 -15 9 -16 1 -32 17 -25 28 4 6 6 42 6 81
-1 38 2 64 7 57 5 -8 10 -9 14 -3 3 5 -1 13 -10 16 -8 3 -12 10 -9 16 3 5 1
10 -6 10 -8 0 -8 4 2 16 10 13 10 17 -2 25 -8 5 -9 9 -2 9 6 0 9 9 5 22 -3 14
-1 19 6 14 6 -3 14 -1 18 5 4 7 3 9 -2 6 -6 -3 -16 -2 -24 4 -9 5 -10 9 -3 9
6 0 9 9 5 22 -3 14 -1 19 6 14 6 -3 14 -2 17 4 4 6 3 10 -2 9 -4 -1 -15 -1
-23 0 -13 1 -13 2 0 11 9 6 11 10 3 10 -7 0 -10 6 -7 14 3 8 13 13 22 10 9 -3
7 1 -5 7 -13 7 -23 16 -23 21 0 5 4 6 10 3 6 -4 7 2 2 17 -12 33 -8 53 8 50
11 -1 10 2 -3 12 -14 10 -15 15 -5 19 10 4 10 6 1 6 -7 1 -13 6 -13 12 0 5 4
7 10 4 6 -4 7 2 2 17 -5 13 -8 42 -7 66 1 23 -3 42 -7 42 -5 0 -6 6 -2 13 6 9
4 9 -7 2 -16 -12 -79 -13 -97 -1 -6 4 -12 3 -12 -2 0 -10 -30 -9 -48 2 -6 4
-12 4 -12 -1 0 -4 -22 -8 -50 -8 -27 0 -50 4 -50 8 0 4 -8 3 -18 -2 -13 -7
-23 -6 -30 1 -7 7 -12 8 -12 2 0 -10 -159 -12 -176 -2 -5 4 -16 3 -24 -2 -9
-5 -19 -5 -27 2 -7 6 -13 7 -13 2 0 -5 -16 -9 -35 -9 -19 0 -35 4 -35 8 0 5
-5 5 -12 1 -16 -10 -89 -11 -95 -1 -2 4 -12 3 -22 -3 -12 -6 -22 -5 -29 2 -7
7 -12 8 -12 2 0 -7 -57 -9 -195 -4 -5 0 -30 -1 -55 -3 -25 -2 -51 1 -57 6 -7
5 -13 6 -13 1 0 -5 -22 -9 -50 -9 -27 0 -50 4 -50 8 0 4 -8 3 -18 -2 -13 -7
-23 -6 -30 1 -7 7 -12 8 -12 3 0 -11 -159 -13 -176 -3 -5 4 -16 3 -24 -2 -9
-5 -19 -5 -27 2 -7 6 -13 7 -13 2 0 -5 -16 -9 -35 -9 -19 0 -35 4 -35 8 0 5
-5 5 -12 1 -16 -10 -89 -11 -95 -1 -2 4 -12 3 -22 -3 -12 -6 -22 -5 -29 2 -7
7 -12 8 -12 3 0 -8 -57 -10 -195 -5 -5 0 -30 -1 -55 -3 -25 -2 -51 1 -57 6 -7
5 -13 6 -13 1 0 -5 -22 -9 -50 -9 -27 0 -50 4 -50 8 0 5 -6 5 -12 1 -19 -12
-48 -12 -48 -1 0 6 -5 6 -12 1 -16 -11 -39 -11 -55 -1 -7 5 -13 4 -13 0 0 -5
-9 -9 -20 -9 -11 0 -20 4 -20 9 0 5 -6 5 -13 -2 -10 -8 -17 -7 -25 1 -8 8 -12
8 -12 1 0 -6 -12 -8 -27 -6 -34 5 -48 5 -90 0 -18 -3 -33 0 -33 6 0 6 -5 6
-12 1 -16 -11 -39 -11 -55 -1 -7 5 -13 4 -13 0 0 -5 -9 -9 -20 -9 -11 0 -20 4
-20 9 0 5 -6 5 -13 -2 -10 -8 -17 -7 -25 1 -8 8 -12 8 -12 1 0 -6 -12 -8 -27
-6 -34 5 -48 5 -90 0 -18 -3 -33 0 -33 6 0 6 -5 6 -12 1 -16 -11 -39 -11 -55
-1 -7 5 -13 4 -13 0 0 -5 -9 -9 -20 -9 -11 0 -20 4 -20 9 0 5 -6 5 -13 -2 -10
-8 -17 -7 -25 1 -8 8 -12 8 -12 1 0 -6 -12 -8 -27 -6 -34 5 -48 5 -90 0 -18
-3 -33 0 -33 6 0 6 -5 6 -12 1 -16 -11 -39 -11 -55 -1 -7 5 -13 4 -13 0 0 -5
-9 -9 -20 -9 -11 0 -20 4 -20 9 0 5 -6 5 -13 -2 -10 -8 -17 -7 -25 1 -7 7 -12
8 -12 2 0 -8 -62 -11 -80 -4 -3 1 -14 3 -25 4 -22 1 -31 46 -11 58 7 5 7 8 -3
8 -11 0 -11 3 0 17 10 11 10 14 2 9 -16 -9 -17 6 -1 22 7 7 8 12 2 12 -14 0
-14 31 -1 48 6 7 6 12 0 12 -6 0 -9 12 -7 28 1 15 3 27 4 27 2 0 4 10 5 22 1
12 -2 20 -6 17 -13 -8 -11 10 4 25 10 11 10 13 -1 7 -7 -5 -12 -1 -12 9 0 10
5 13 12 9 7 -5 8 -3 2 7 -5 8 -9 21 -9 29 0 8 -4 21 -8 28 -5 6 -4 12 2 12 6
0 7 20 4 50 -4 38 -2 50 8 51 8 0 5 4 -6 9 -11 5 -15 9 -8 9 8 1 10 17 6 51
-4 38 -2 50 8 51 8 0 5 4 -6 9 -11 5 -15 9 -8 9 8 1 10 17 6 51 -4 38 -2 50 8
51 8 0 5 4 -6 9 -11 5 -15 9 -8 9 8 1 10 17 6 51 -4 38 -2 50 8 51 8 0 5 4 -6
9 -11 5 -15 9 -8 9 8 1 10 17 6 51 -4 38 -2 50 8 51 8 0 5 4 -6 9 -11 5 -15 9
-8 9 8 1 10 15 6 46 -4 39 -2 48 18 66 13 11 17 17 9 13 -31 -17 -40 -12 -22
12 9 13 20 24 25 24 10 0 9 20 -1 20 -5 0 -14 -10 -19 -22 -9 -20 -10 -19 -10
14 1 25 5 34 11 28 15 -15 30 -12 17 4 -10 12 -9 14 6 11 10 -2 19 -4 21 -5 1
-2 5 -3 10 -4 4 -1 13 -5 20 -9 8 -6 12 -2 12 10 0 15 2 15 9 3 6 -8 7 -18 5
-22 -3 -4 0 -8 6 -8 7 0 10 7 6 15 -8 23 11 18 28 -7 9 -12 16 -17 16 -11 0 7
9 10 20 8 11 -2 23 1 26 7 4 6 3 8 -3 5 -6 -4 -13 0 -16 8 -5 11 -1 12 19 5
14 -6 23 -6 20 -1 -4 5 -1 11 6 13 7 3 14 18 15 34 7 65 9 79 14 89 4 6 5 20
4 33 -1 12 1 22 4 22 3 0 7 15 8 33 1 17 4 43 7 57 2 14 5 33 5 43 1 10 5 16
9 13 4 -2 14 0 22 6 13 8 12 9 -2 5 -22 -7 -30 3 -17 20 6 7 8 13 3 13 -4 0 1
7 12 16 18 15 18 15 0 10 -14 -5 -17 -2 -12 10 3 8 6 18 6 20 0 3 5 2 11 -1 6
-4 5 2 -2 14 -12 18 -10 24 16 53 17 18 20 24 8 14 l-23 -19 6 44 c4 24 11 47
18 51 6 4 7 8 1 8 -5 0 -3 5 5 10 13 8 13 10 -2 10 -12 0 -15 5 -11 16 5 13 7
13 14 2 5 -7 9 -8 9 -2 0 5 -5 15 -12 22 -7 7 -8 12 -2 12 5 0 10 17 12 38 3
59 4 62 21 63 10 0 12 2 4 6 -7 2 -13 18 -13 34 0 17 4 28 8 25 4 -3 8 12 8
32 0 20 3 56 7 80 5 30 3 42 -6 43 -7 0 -79 0 -160 -1 -109 -1 -153 2 -165 12
-9 7 -13 8 -9 2 4 -7 -2 -11 -18 -11 -14 0 -22 3 -19 8 3 5 -1 6 -9 3 -12 -4
-15 5 -14 43 0 26 5 54 11 62 8 11 8 13 -1 7 -14 -8 -18 6 -6 18 11 10 12 37
2 30 -5 -3 -9 13 -9 35 l0 39 -82 -1 c-78 -2 -83 -3 -84 -24 -1 -12 -4 -28 -7
-37 -3 -8 -2 -18 4 -22 6 -4 4 -13 -7 -25 -17 -19 -17 -20 2 -13 17 7 17 6 5
-9 -9 -12 -10 -17 -2 -17 7 0 9 -5 6 -10 -4 -6 -10 -8 -15 -5 -4 3 -6 -4 -3
-15 3 -11 10 -20 17 -20 6 0 5 -4 -3 -9 -11 -7 -12 -13 -3 -24 9 -11 8 -14 -3
-14 -8 0 -15 5 -15 11 0 6 -5 5 -12 -2 -7 -7 -15 -12 -19 -12 -9 0 -21 36 -24
72 -2 20 1 25 14 21 11 -4 10 -1 -4 10 -13 11 -15 16 -6 17 9 0 10 4 5 13 -5
6 -9 35 -9 63 l1 52 -52 0 c-29 0 -57 2 -62 6 -6 3 -14 1 -17 -5 -4 -5 -13 -8
-21 -5 -8 3 -15 1 -15 -4 -3 -20 -5 -25 -13 -39 -6 -10 -5 -12 2 -7 7 4 12 2
12 -3 0 -6 -4 -11 -9 -11 -14 0 -21 -29 -9 -36 6 -4 8 -3 4 4 -3 6 -2 13 2 16
11 6 9 -111 -1 -121 -4 -3 -7 -11 -7 -17 0 -6 5 -4 10 4 5 8 10 11 10 5 0 -11
-14 -36 -22 -38 -3 -1 -13 5 -23 13 -11 8 -16 9 -11 3 5 -10 -6 -12 -44 -12
-27 1 -50 6 -50 11 0 5 -5 6 -11 2 -8 -4 -8 0 0 15 8 15 9 21 1 21 -6 0 -8 5
-5 10 4 6 11 8 16 5 5 -4 9 -1 9 4 0 6 -6 11 -13 11 -7 0 -13 9 -13 20 0 11 4
20 9 20 5 0 3 8 -4 17 -10 11 -10 14 -1 9 6 -4 12 -3 12 3 0 5 -6 12 -12 14
-7 3 -4 6 7 6 16 1 17 3 5 11 -17 10 -22 170 -5 182 6 5 5 8 -3 8 -9 0 -10 5
-3 19 10 17 5 18 -79 20 -85 2 -90 1 -90 -19z m919 -1384 c11 -14 6 -15 -27
-7 -4 1 8 21 12 21 2 0 9 -6 15 -14z"/>
<path d="M687 4899 c7 -7 15 -10 18 -7 3 3 -2 9 -12 12 -14 6 -15 5 -6 -5z"/>
<path d="M1030 4756 c7 -7 13 -7 20 0 6 6 3 10 -10 10 -13 0 -16 -4 -10 -10z"/>
<path d="M470 4686 c0 -2 7 -7 16 -10 8 -3 12 -2 9 4 -6 10 -25 14 -25 6z"/>
<path d="M1024 4669 c0 -9 5 -15 11 -12 7 2 12 10 12 17 0 7 -5 13 -12 13 -6
0 -11 -8 -11 -18z"/>
<path d="M1273 4655 c0 -8 4 -12 9 -9 5 3 6 10 3 15 -9 13 -12 11 -12 -6z"/>
<path d="M4370 4533 c-87 -4 -141 -14 -135 -24 4 -5 0 -9 -9 -9 -8 0 -38 -12
-68 -27 -29 -15 -55 -28 -58 -28 -3 0 -15 -6 -28 -13 -12 -7 -27 -10 -32 -7
-6 3 -10 -2 -10 -11 0 -10 -3 -15 -6 -12 -3 4 -17 0 -31 -7 -15 -8 -31 -11
-36 -8 -6 3 -7 2 -4 -3 3 -6 -7 -15 -24 -21 -16 -6 -29 -8 -29 -3 0 4 -6 7
-12 7 -21 -2 -108 25 -114 34 -3 5 -16 9 -30 9 -14 0 -23 3 -21 8 3 4 -9 8
-26 9 -17 1 -35 7 -41 13 -5 5 -20 10 -33 10 -13 0 -31 4 -41 9 -19 10 -53 24
-64 25 -3 1 -9 4 -13 8 -4 4 -13 4 -21 1 -8 -3 -14 0 -14 7 0 6 -4 9 -8 6 -5
-3 -20 1 -33 8 -14 7 -38 11 -54 10 -17 -2 -37 -4 -45 -5 -8 -1 -21 -6 -27
-12 -9 -6 -13 -5 -13 4 0 12 -2 12 -9 0 -5 -8 -16 -11 -26 -8 -10 5 -14 3 -9
-5 5 -7 0 -9 -14 -6 -13 4 -22 1 -22 -5 0 -6 -3 -7 -6 -4 -4 3 -15 2 -26 -4
-14 -7 -23 -7 -34 2 -12 10 -15 10 -12 -1 2 -8 -14 -18 -42 -26 -25 -6 -39
-12 -32 -13 6 -1 12 -5 12 -11 0 -12 32 -45 51 -53 10 -4 9 -6 -3 -6 -10 -1
-18 -6 -18 -12 0 -5 4 -8 9 -5 16 10 41 -5 41 -24 0 -10 6 -23 14 -30 8 -6 12
-19 9 -28 -4 -14 -3 -15 6 -2 7 10 6 19 -5 31 -23 26 -16 32 10 7 14 -14 20
-27 15 -32 -5 -6 -9 -15 -9 -20 0 -6 5 -4 10 4 7 12 13 13 27 3 10 -6 17 -16
16 -22 -2 -6 3 -11 10 -11 22 0 49 -34 36 -47 -7 -7 -4 -10 10 -9 11 0 19 -3
18 -8 -1 -5 8 -12 20 -17 12 -4 27 -18 33 -30 8 -15 9 -19 1 -15 -6 4 -11 2
-11 -4 0 -6 -4 -9 -9 -6 -5 3 -12 -1 -15 -10 -3 -8 -10 -12 -16 -9 -5 3 -10 1
-10 -5 0 -6 -4 -9 -9 -5 -5 3 -13 0 -16 -6 -4 -5 -14 -8 -22 -5 -8 3 -12 2 -9
-3 3 -5 -1 -11 -9 -15 -19 -7 -168 68 -157 79 4 5 2 5 -4 2 -15 -9 -66 17 -56
28 4 5 1 5 -6 0 -15 -8 -64 14 -57 26 3 4 -4 5 -15 2 -11 -3 -20 0 -20 6 0 6
-5 11 -11 11 -6 0 -25 10 -42 22 -17 12 -27 17 -23 10 8 -14 -55 18 -66 33 -5
7 -8 7 -8 0 0 -5 -5 -3 -10 5 -11 18 -116 17 -130 -2 -3 -4 -17 -9 -32 -12
-14 -2 -36 -9 -47 -16 -12 -6 -27 -8 -33 -4 -7 5 -8 3 -3 -6 6 -10 3 -12 -13
-8 -12 3 -23 1 -25 -6 -4 -11 6 -23 80 -100 40 -42 46 -58 30 -83 -5 -8 -4
-13 2 -13 10 0 15 14 12 33 0 4 3 7 9 7 5 0 10 -9 10 -20 0 -11 5 -20 11 -20
5 0 7 6 3 13 -4 6 2 4 14 -6 11 -11 18 -25 15 -33 -4 -10 0 -12 13 -7 9 3 15
2 12 -3 -3 -5 0 -15 8 -22 8 -7 14 -10 14 -6 0 4 9 -1 19 -10 12 -11 17 -25
14 -34 -5 -11 -2 -14 10 -9 17 7 41 -15 29 -28 -4 -5 1 -5 11 -2 10 4 16 3 12
-2 -3 -5 1 -11 7 -14 7 -2 -4 -9 -24 -16 -21 -7 -38 -16 -38 -21 0 -5 -9 -11
-20 -15 -19 -6 -19 -8 -5 -36 9 -16 13 -34 10 -40 -4 -5 -1 -8 6 -7 18 4 24
-33 7 -44 -9 -6 -6 -7 10 -3 22 6 32 -10 11 -17 -7 -2 -4 -10 7 -18 16 -13 17
-13 9 0 -5 10 -1 9 13 -3 13 -12 26 -16 34 -11 17 12 30 12 50 2 10 -5 19 -4
23 2 4 6 12 7 18 3 19 -11 47 -11 47 1 0 7 3 8 8 1 8 -12 22 -13 38 -3 6 4 11
1 11 -6 0 -8 -10 -12 -27 -11 -20 2 -26 -3 -27 -19 -2 -18 -1 -19 8 -4 10 18
41 17 65 -3 10 -8 14 -8 14 0 0 6 -5 11 -11 11 -6 0 -9 8 -7 18 3 16 23 23 42
14 19 -10 224 -7 218 3 -3 6 1 4 9 -2 12 -10 18 -10 29 0 10 10 11 9 5 -2 -6
-11 -4 -13 11 -6 10 4 27 7 37 7 9 0 15 3 12 9 -6 9 8 13 34 10 7 -2 10 2 7 8
-6 8 22 23 49 26 6 0 9 7 7 14 -1 7 2 10 7 7 5 -4 12 -2 16 4 4 6 10 8 15 5 4
-2 19 5 34 16 14 11 26 17 26 12 0 -4 4 -2 9 5 7 11 9 10 14 -3 4 -9 3 -13 -3
-10 -6 3 -10 2 -10 -3 0 -11 30 -25 38 -17 3 3 1 5 -4 5 -6 0 -10 11 -10 24 0
17 4 22 15 18 10 -4 12 -1 6 9 -4 8 -5 11 0 7 4 -4 17 -2 29 4 11 6 18 7 14 3
-4 -5 -3 -14 3 -22 6 -7 8 -13 4 -13 -4 0 -2 -7 5 -15 9 -10 9 -15 1 -15 -6 0
-11 5 -11 11 0 5 -5 7 -11 3 -8 -4 -4 -11 11 -19 13 -7 25 -23 27 -35 2 -13 9
-30 16 -39 9 -12 9 -13 0 -7 -7 4 -13 2 -13 -3 0 -6 5 -11 11 -11 5 0 7 -5 4
-10 -3 -6 1 -17 10 -26 14 -15 14 -17 -2 -30 -14 -11 -14 -14 -3 -12 10 2 14
-4 12 -16 -2 -11 1 -15 7 -11 6 3 11 -1 11 -10 0 -10 -5 -14 -12 -9 -7 4 -3
-3 10 -15 24 -24 29 -47 10 -54 -8 -3 -6 -6 4 -6 19 -1 20 -21 3 -33 -6 -4 -2
-8 8 -8 14 0 17 -5 12 -21 -5 -15 -4 -19 4 -15 15 10 14 -7 -1 -23 -11 -10
-10 -11 3 -6 17 6 20 -3 21 -65 1 -19 3 -29 5 -23 3 9 10 10 24 3 13 -8 19 -7
19 0 0 6 5 8 11 4 19 -11 69 -12 76 -1 3 6 1 7 -6 3 -6 -4 -14 0 -17 9 -6 14
-8 14 -19 -1 -9 -14 -14 -14 -20 -4 -5 8 -4 11 2 7 6 -4 14 0 17 9 3 8 10 13
15 10 5 -3 14 1 21 9 6 7 19 11 27 8 12 -5 14 -3 8 8 -7 11 -5 11 10 -1 10 -8
16 -10 12 -3 -4 6 -3 14 2 17 5 4 13 1 17 -5 4 -8 3 -9 -4 -5 -8 5 -10 1 -5
-10 4 -11 8 -13 11 -6 2 7 8 9 14 6 6 -4 6 2 -1 14 -7 14 -8 23 -1 27 5 3 10
3 10 -2 0 -4 5 -1 11 7 9 13 10 13 6 0 -2 -8 -11 -14 -18 -12 -8 2 -10 0 -6
-4 12 -12 38 -14 30 -2 -4 7 1 9 15 6 12 -4 20 -1 19 5 -1 5 9 14 23 18 18 5
20 7 6 8 -16 1 -17 3 -5 17 12 14 14 14 27 -3 14 -17 14 -17 8 1 -3 10 -2 24
3 30 5 6 8 29 7 51 -1 22 3 46 8 54 7 9 7 13 1 9 -7 -4 -10 68 -10 218 0 188
2 226 15 235 13 9 12 10 -2 5 -10 -3 -18 -3 -18 -1 0 3 8 14 18 25 17 21 26
64 11 54 -4 -2 -5 -12 -2 -21 5 -12 3 -14 -7 -8 -8 5 -11 4 -6 -3 3 -6 1 -14
-5 -17 -20 -13 -5 39 16 55 11 8 22 15 25 15 3 1 15 6 26 13 12 6 24 8 28 5
13 -13 44 -10 39 4 -4 10 -9 11 -19 2 -9 -7 -14 -8 -14 -1 0 9 26 25 33 19 1
-1 19 8 39 21 23 14 39 19 43 12 4 -7 12 -7 24 0 10 5 21 7 25 5 3 -3 2 0 -3
7 -8 8 -14 8 -26 -2 -9 -7 -15 -8 -15 -2 0 6 20 18 45 28 25 9 45 21 45 25 0
5 5 9 11 9 5 0 7 -5 3 -12 -4 -6 -3 -8 4 -5 5 4 8 16 5 27 -3 12 0 20 6 20 7
0 9 5 6 10 -3 6 -2 10 4 10 5 0 12 -6 15 -12 3 -7 3 -1 0 13 -3 16 -1 30 7 34
8 6 10 4 4 -6 -8 -12 -6 -12 8 0 18 14 23 26 8 17 -18 -11 -19 22 -2 41 10 10
23 32 28 48 6 17 17 29 26 29 9 -1 13 4 10 11 -2 7 4 15 14 18 13 3 12 5 -6 6
l-25 1 22 20 c24 23 29 36 10 24 -9 -5 -8 -2 1 9 8 10 12 20 9 23 -6 5 -234
10 -318 7z m-235 -1203 c-3 -5 -11 -10 -16 -10 -6 0 -7 5 -4 10 3 6 11 10 16
10 6 0 7 -4 4 -10z"/>
<path d="M1655 4499 c-4 -6 -5 -12 -2 -15 2 -3 7 2 10 11 7 17 1 20 -8 4z"/>
<path d="M4635 4380 c-3 -5 -1 -10 4 -10 6 0 11 5 11 10 0 6 -2 10 -4 10 -3 0
-8 -4 -11 -10z"/>
<path d="M3118 4333 c7 -3 16 -2 19 1 4 3 -2 6 -13 5 -11 0 -14 -3 -6 -6z"/>
<path d="M4605 4329 c-4 -6 -5 -12 -2 -15 2 -3 7 2 10 11 7 17 1 20 -8 4z"/>
<path d="M3133 4295 c0 -8 4 -12 9 -9 5 3 6 10 3 15 -9 13 -12 11 -12 -6z"/>
<path d="M3219 4252 c9 -7 10 -11 2 -15 -7 -4 -8 -5 -1 -3 16 2 14 20 -2 24
-10 3 -10 2 1 -6z"/>
<path d="M3264 4205 c8 -8 18 -15 22 -15 3 0 1 7 -6 15 -7 8 -17 15 -22 15 -5
0 -3 -7 6 -15z"/>
<path d="M1616 4193 c-6 -14 -5 -15 5 -6 7 7 10 15 7 18 -3 3 -9 -2 -12 -12z"/>
<path d="M3250 4180 c0 -5 5 -10 11 -10 5 0 7 5 4 10 -3 6 -8 10 -11 10 -2 0
-4 -4 -4 -10z"/>
<path d="M3300 4160 c-9 -6 -10 -10 -3 -10 6 0 15 5 18 10 8 12 4 12 -15 0z"/>
<path d="M2510 4140 c0 -5 9 -15 21 -23 15 -11 17 -16 7 -20 -9 -4 -9 -6 -1
-6 23 -2 21 14 -3 36 -13 12 -24 18 -24 13z"/>
<path d="M3342 4126 c7 -8 15 -12 17 -11 5 6 -10 25 -20 25 -5 0 -4 -6 3 -14z"/>
<path d="M4395 4116 c-10 -7 -20 -21 -21 -31 -1 -9 1 -14 4 -10 4 4 7 12 7 18
0 7 12 11 25 10 14 -1 19 1 12 3 -6 3 -10 10 -6 15 7 13 1 11 -21 -5z"/>
<path d="M3315 4111 c-3 -5 0 -13 6 -17 7 -4 9 -3 5 4 -3 5 0 13 6 15 9 4 10
6 1 6 -6 1 -14 -3 -18 -8z"/>
<path d="M1600 4100 c-9 -6 -10 -10 -3 -10 6 0 15 5 18 10 8 12 4 12 -15 0z"/>
<path d="M235 4090 c-3 -5 -1 -10 4 -10 6 0 11 5 11 10 0 6 -2 10 -4 10 -3 0
-8 -4 -11 -10z"/>
<path d="M2555 4080 c-4 -6 -1 -9 7 -8 7 2 12 -3 11 -9 -2 -7 2 -13 7 -13 14
0 12 16 -4 29 -10 8 -16 9 -21 1z"/>
<path d="M4270 4050 c-22 -22 -26 -40 -10 -40 6 0 9 3 9 8 -3 19 2 33 10 28 5
-3 11 1 15 9 7 20 0 19 -24 -5z"/>
<path d="M4296 4033 c-6 -14 -5 -15 5 -6 7 7 10 15 7 18 -3 3 -9 -2 -12 -12z"/>
<path d="M2635 3980 c-3 -5 -1 -10 4 -10 6 0 11 5 11 10 0 6 -2 10 -4 10 -3 0
-8 -4 -11 -10z"/>
<path d="M2680 3940 c-9 -6 -10 -10 -3 -10 6 0 15 5 18 10 8 12 4 12 -15 0z"/>
<path d="M2729 3927 c6 -8 7 -18 3 -22 -4 -5 -1 -5 6 -1 10 6 10 11 1 22 -6 8
-14 14 -16 14 -3 0 0 -6 6 -13z"/>
<path d="M1556 3873 c-6 -14 -5 -15 5 -6 7 7 10 15 7 18 -3 3 -9 -2 -12 -12z"/>
<path d="M2730 3880 c0 -5 5 -10 11 -10 5 0 7 5 4 10 -3 6 -8 10 -11 10 -2 0
-4 -4 -4 -10z"/>
<path d="M2770 3880 c0 -5 5 -10 11 -10 5 0 7 5 4 10 -3 6 -8 10 -11 10 -2 0
-4 -4 -4 -10z"/>
<path d="M2755 3849 c-11 -16 -1 -19 13 -3 7 8 8 14 3 14 -5 0 -13 -5 -16 -11z"/>
<path d="M1545 3840 c3 -5 11 -10 16 -10 6 0 7 5 4 10 -3 6 -11 10 -16 10 -6
0 -7 -4 -4 -10z"/>
<path d="M3670 3744 c-10 -11 -9 -14 8 -14 25 0 37 16 18 23 -8 3 -20 -1 -26
-9z"/>
<path d="M295 3740 c-3 -6 1 -7 9 -4 18 7 21 14 7 14 -6 0 -13 -4 -16 -10z"/>
<path d="M1520 3746 c0 -2 7 -7 16 -10 8 -3 12 -2 9 4 -6 10 -25 14 -25 6z"/>
<path d="M3589 3714 c-13 -16 -25 -64 -13 -52 5 5 7 14 13 48 1 3 6 -2 11 -10
7 -12 9 -10 7 8 -2 26 -1 26 -18 6z"/>
<path d="M3525 3680 c-10 -11 -15 -23 -12 -27 4 -3 7 -1 7 6 0 7 7 11 14 8 11
-4 13 -1 9 10 -5 12 -3 14 7 8 9 -5 11 -4 6 3 -9 16 -10 15 -31 -8z"/>
<path d="M1516 3673 c-6 -14 -5 -15 5 -6 7 7 10 15 7 18 -3 3 -9 -2 -12 -12z"/>
<path d="M3482 3658 c-14 -14 -16 -38 -2 -38 5 0 6 7 3 17 -4 10 -2 14 4 10 5
-3 10 0 10 8 0 18 0 18 -15 3z"/>
<path d="M1516 3633 c-6 -14 -5 -15 5 -6 7 7 10 15 7 18 -3 3 -9 -2 -12 -12z"/>
<path d="M3433 3618 c0 -13 1 -17 4 -10 3 6 10 9 16 5 7 -4 6 1 -2 10 -17 21
-17 21 -18 -5z"/>
<path d="M1297 3599 c4 -13 8 -18 11 -10 2 7 -1 18 -6 23 -8 8 -9 4 -5 -13z"/>
<path d="M2839 3603 c-8 -9 -8 -13 0 -13 6 0 11 5 11 11 0 5 4 8 9 4 5 -3 12
-2 15 3 9 14 -23 10 -35 -5z"/>
<path d="M2917 3613 c-4 -3 -7 -11 -7 -17 0 -6 5 -4 10 4 7 12 10 12 10 1 0
-8 6 -11 16 -7 12 5 15 2 10 -11 -6 -15 -5 -16 5 -5 10 9 10 15 1 24 -7 7 -12
8 -12 4 0 -5 -6 -3 -13 3 -8 6 -17 8 -20 4z"/>
<path d="M3073 3599 c11 -17 14 -16 20 7 1 4 -6 8 -15 10 -14 2 -15 -1 -5 -17z"/>
<path d="M466 3597 c3 -10 9 -15 12 -12 3 3 0 11 -7 18 -10 9 -11 8 -5 -6z"/>
<path d="M490 3598 c0 -4 9 -7 20 -5 29 5 33 13 5 13 -14 0 -25 -4 -25 -8z"/>
<path d="M1320 3601 c0 -10 19 -25 25 -20 1 2 -3 10 -11 17 -8 7 -14 8 -14 3z"/>
<path d="M2790 3606 c0 -2 7 -7 16 -10 8 -3 12 -2 9 4 -6 10 -25 14 -25 6z"/>
<path d="M3116 3598 c3 -5 10 -6 15 -3 13 9 11 12 -6 12 -8 0 -12 -4 -9 -9z"/>
<path d="M3156 3599 c2 -4 -2 -10 -8 -12 -8 -4 -9 -6 -2 -6 6 -1 17 5 23 12 8
10 7 14 -4 14 -8 0 -12 -4 -9 -8z"/>
<path d="M3196 3599 c2 -4 -2 -9 -8 -12 -7 -3 -4 -5 8 -4 22 1 30 24 8 24 -7
0 -11 -4 -8 -8z"/>
<path d="M3230 3600 c0 -5 9 -14 20 -20 11 -6 20 -9 20 -8 0 2 -9 11 -20 21
-11 9 -20 13 -20 7z"/>
<path d="M3290 3600 c0 -5 5 -10 11 -10 5 0 7 5 4 10 -3 6 -8 10 -11 10 -2 0
-4 -4 -4 -10z"/>
<path d="M3337 3591 c-4 -17 -3 -21 5 -13 5 5 8 16 6 23 -3 8 -7 3 -11 -10z"/>
<path d="M395 3580 c3 -5 8 -10 11 -10 2 0 4 5 4 10 0 6 -5 10 -11 10 -5 0 -7
-4 -4 -10z"/>
<path d="M2868 3583 c6 -2 9 -10 6 -15 -4 -7 -2 -8 5 -4 13 9 5 26 -12 25 -9
0 -8 -2 1 -6z"/>
<path d="M3110 3559 c0 -5 5 -7 10 -4 6 3 10 8 10 11 0 2 -4 4 -10 4 -5 0 -10
-5 -10 -11z"/>
<path d="M3830 3272 c6 -13 14 -21 18 -18 3 4 -2 14 -12 24 -18 16 -18 16 -6
-6z"/>
<path d="M3981 3256 c-10 -12 -9 -14 6 -11 10 1 23 -1 29 -6 7 -5 11 -3 11 6
0 8 -3 13 -5 10 -3 -3 -11 0 -17 5 -9 7 -16 6 -24 -4z"/>
<path d="M550 2986 c0 -2 7 -7 16 -10 8 -3 12 -2 9 4 -6 10 -25 14 -25 6z"/>
<path d="M556 2882 c-3 -5 1 -9 9 -9 8 0 12 4 9 9 -3 4 -7 8 -9 8 -2 0 -6 -4
-9 -8z"/>
<path d="M555 2601 c-3 -5 -2 -12 3 -15 5 -3 9 1 9 9 0 17 -3 19 -12 6z"/>
<path d="M4796 2287 c3 -10 9 -15 12 -12 3 3 0 11 -7 18 -10 9 -11 8 -5 -6z"/>
<path d="M4793 2185 c0 -8 4 -12 9 -9 5 3 6 10 3 15 -9 13 -12 11 -12 -6z"/>
<path d="M555 2121 c-3 -5 -2 -12 3 -15 5 -3 9 1 9 9 0 17 -3 19 -12 6z"/>
<path d="M550 1906 c0 -2 7 -7 16 -10 8 -3 12 -2 9 4 -6 10 -25 14 -25 6z"/>
<path d="M4793 1785 c0 -8 4 -12 9 -9 5 3 6 10 3 15 -9 13 -12 11 -12 -6z"/>
<path d="M550 1746 c0 -2 7 -7 16 -10 8 -3 12 -2 9 4 -6 10 -25 14 -25 6z"/>
<path d="M550 1586 c0 -2 7 -7 16 -10 8 -3 12 -2 9 4 -6 10 -25 14 -25 6z"/>
<path d="M550 1426 c0 -2 7 -7 16 -10 8 -3 12 -2 9 4 -6 10 -25 14 -25 6z"/>
<path d="M550 1066 c0 -2 7 -7 16 -10 8 -3 12 -2 9 4 -6 10 -25 14 -25 6z"/>
<path d="M556 962 c-3 -5 1 -9 9 -9 8 0 12 4 9 9 -3 4 -7 8 -9 8 -2 0 -6 -4
-9 -8z"/>
<path d="M4793 785 c0 -8 4 -12 9 -9 5 3 6 10 3 15 -9 13 -12 11 -12 -6z"/>
<path d="M4793 665 c0 -8 4 -12 9 -9 5 3 6 10 3 15 -9 13 -12 11 -12 -6z"/>
<path d="M550 586 c0 -2 7 -7 16 -10 8 -3 12 -2 9 4 -6 10 -25 14 -25 6z"/>
<path d="M556 482 c-3 -5 1 -9 9 -9 8 0 12 4 9 9 -3 4 -7 8 -9 8 -2 0 -6 -4
-9 -8z"/>
<path d="M5030 179 c0 -5 5 -7 10 -4 6 3 10 8 10 11 0 2 -4 4 -10 4 -5 0 -10
-5 -10 -11z"/>
<path d="M254 80 c2 -16 20 -14 24 2 3 10 2 10 -6 -1 -7 -9 -11 -10 -15 -2 -4
7 -5 8 -3 1z"/>
<path d="M310 81 c0 -5 11 -8 25 -8 30 0 28 6 -4 12 -11 2 -21 0 -21 -4z"/>
<path d="M373 67 c-1 -11 -1 -18 0 -16 2 2 8 11 15 20 9 12 9 16 -1 16 -7 0
-14 -9 -14 -20z"/>
<path d="M510 81 c0 -7 -5 -9 -12 -5 -7 5 -8 3 -3 -5 5 -9 10 -10 18 -2 6 6 8
14 4 18 -4 3 -7 1 -7 -6z"/>
<path d="M550 80 c0 -5 5 -10 11 -10 5 0 7 5 4 10 -3 6 -8 10 -11 10 -2 0 -4
-4 -4 -10z"/>
<path d="M582 70 c-9 -15 -9 -21 1 -26 6 -4 9 -4 5 1 -4 4 -3 14 4 22 6 7 9
15 7 18 -3 2 -10 -4 -17 -15z"/>
<path d="M613 67 c-1 -11 -1 -18 0 -16 2 2 8 11 15 20 9 12 9 16 -1 16 -7 0
-14 -9 -14 -20z"/>
<path d="M734 80 c2 -16 20 -14 24 2 3 10 2 10 -6 -1 -7 -9 -11 -10 -15 -2 -4
7 -5 8 -3 1z"/>
<path d="M790 81 c0 -5 11 -8 25 -8 30 0 28 6 -4 12 -11 2 -21 0 -21 -4z"/>
<path d="M853 67 c-1 -11 -1 -18 0 -16 2 2 8 11 15 20 9 12 9 16 -1 16 -7 0
-14 -9 -14 -20z"/>
<path d="M990 81 c0 -7 -5 -9 -12 -5 -7 5 -8 3 -3 -5 5 -9 10 -10 18 -2 6 6 8
14 4 18 -4 3 -7 1 -7 -6z"/>
<path d="M1030 80 c0 -5 5 -10 11 -10 5 0 7 5 4 10 -3 6 -8 10 -11 10 -2 0 -4
-4 -4 -10z"/>
<path d="M1062 70 c-9 -15 -9 -21 1 -26 6 -4 9 -4 5 1 -4 4 -3 14 4 22 6 7 9
15 7 18 -3 2 -10 -4 -17 -15z"/>
<path d="M1093 67 c-1 -11 -1 -18 0 -16 2 2 8 11 15 20 9 12 9 16 -1 16 -7 0
-14 -9 -14 -20z"/>
<path d="M1214 80 c2 -16 20 -14 24 2 3 10 2 10 -6 -1 -7 -9 -11 -10 -15 -2
-4 7 -5 8 -3 1z"/>
<path d="M1270 81 c0 -5 11 -8 25 -8 30 0 28 6 -4 12 -11 2 -21 0 -21 -4z"/>
<path d="M1333 67 c-1 -11 -1 -18 0 -16 2 2 8 11 15 20 9 12 9 16 -1 16 -7 0
-14 -9 -14 -20z"/>
<path d="M1470 81 c0 -7 -5 -9 -12 -5 -7 5 -8 3 -3 -5 5 -9 10 -10 18 -2 6 6
8 14 4 18 -4 3 -7 1 -7 -6z"/>
<path d="M1510 80 c0 -5 5 -10 11 -10 5 0 7 5 4 10 -3 6 -8 10 -11 10 -2 0 -4
-4 -4 -10z"/>
<path d="M1542 70 c-9 -15 -9 -21 1 -26 6 -4 9 -4 5 1 -4 4 -3 14 4 22 6 7 9
15 7 18 -3 2 -10 -4 -17 -15z"/>
<path d="M1573 67 c-1 -11 -1 -18 0 -16 2 2 8 11 15 20 9 12 9 16 -1 16 -7 0
-14 -9 -14 -20z"/>
<path d="M1694 80 c2 -16 20 -14 24 2 3 10 2 10 -6 -1 -7 -9 -11 -10 -15 -2
-4 7 -5 8 -3 1z"/>
<path d="M1750 81 c0 -5 11 -8 25 -8 30 0 28 6 -4 12 -11 2 -21 0 -21 -4z"/>
<path d="M1813 67 c-1 -11 -1 -18 0 -16 2 2 8 11 15 20 9 12 9 16 -1 16 -7 0
-14 -9 -14 -20z"/>
<path d="M1950 81 c0 -7 -5 -9 -12 -5 -7 5 -8 3 -3 -5 5 -9 10 -10 18 -2 6 6
8 14 4 18 -4 3 -7 1 -7 -6z"/>
<path d="M1990 80 c0 -5 5 -10 11 -10 5 0 7 5 4 10 -3 6 -8 10 -11 10 -2 0 -4
-4 -4 -10z"/>
<path d="M2022 70 c-9 -15 -9 -21 1 -26 6 -4 9 -4 5 1 -4 4 -3 14 4 22 6 7 9
15 7 18 -3 2 -10 -4 -17 -15z"/>
<path d="M2053 67 c-1 -11 -1 -18 0 -16 2 2 8 11 15 20 9 12 9 16 -1 16 -7 0
-14 -9 -14 -20z"/>
<path d="M2174 80 c2 -16 20 -14 24 2 3 10 2 10 -6 -1 -7 -9 -11 -10 -15 -2
-4 7 -5 8 -3 1z"/>
<path d="M2230 81 c0 -5 11 -8 25 -8 30 0 28 6 -4 12 -11 2 -21 0 -21 -4z"/>
<path d="M2293 67 c-1 -11 -1 -18 0 -16 2 2 8 11 15 20 9 12 9 16 -1 16 -7 0
-14 -9 -14 -20z"/>
<path d="M2430 81 c0 -7 -5 -9 -12 -5 -7 5 -8 3 -3 -5 5 -9 10 -10 18 -2 6 6
8 14 4 18 -4 3 -7 1 -7 -6z"/>
<path d="M2470 80 c0 -5 5 -10 11 -10 5 0 7 5 4 10 -3 6 -8 10 -11 10 -2 0 -4
-4 -4 -10z"/>
<path d="M2502 70 c-9 -15 -9 -21 1 -26 6 -4 9 -4 5 1 -4 4 -3 14 4 22 6 7 9
15 7 18 -3 2 -10 -4 -17 -15z"/>
<path d="M2533 67 c-1 -11 -1 -18 0 -16 2 2 8 11 15 20 9 12 9 16 -1 16 -7 0
-14 -9 -14 -20z"/>
<path d="M2654 80 c2 -16 20 -14 24 2 3 10 2 10 -6 -1 -7 -9 -11 -10 -15 -2
-4 7 -5 8 -3 1z"/>
<path d="M2710 81 c0 -5 11 -8 25 -8 30 0 28 6 -4 12 -11 2 -21 0 -21 -4z"/>
<path d="M2773 67 c-1 -11 -1 -18 0 -16 2 2 8 11 15 20 9 12 9 16 -1 16 -7 0
-14 -9 -14 -20z"/>
<path d="M2910 81 c0 -7 -5 -9 -12 -5 -7 5 -8 3 -3 -5 5 -9 10 -10 18 -2 6 6
8 14 4 18 -4 3 -7 1 -7 -6z"/>
<path d="M2950 80 c0 -5 5 -10 11 -10 5 0 7 5 4 10 -3 6 -8 10 -11 10 -2 0 -4
-4 -4 -10z"/>
<path d="M2982 70 c-9 -15 -9 -21 1 -26 6 -4 9 -4 5 1 -4 4 -3 14 4 22 6 7 9
15 7 18 -3 2 -10 -4 -17 -15z"/>
<path d="M3013 67 c-1 -11 -1 -18 0 -16 2 2 8 11 15 20 9 12 9 16 -1 16 -7 0
-14 -9 -14 -20z"/>
<path d="M3134 80 c2 -16 20 -14 24 2 3 10 2 10 -6 -1 -7 -9 -11 -10 -15 -2
-4 7 -5 8 -3 1z"/>
<path d="M3190 81 c0 -5 11 -8 25 -8 30 0 28 6 -4 12 -11 2 -21 0 -21 -4z"/>
<path d="M3253 67 c-1 -11 -1 -18 0 -16 2 2 8 11 15 20 9 12 9 16 -1 16 -7 0
-14 -9 -14 -20z"/>
<path d="M3390 81 c0 -7 -5 -9 -12 -5 -7 5 -8 3 -3 -5 5 -9 10 -10 18 -2 6 6
8 14 4 18 -4 3 -7 1 -7 -6z"/>
<path d="M3430 80 c0 -5 5 -10 11 -10 5 0 7 5 4 10 -3 6 -8 10 -11 10 -2 0 -4
-4 -4 -10z"/>
<path d="M3462 70 c-9 -15 -9 -21 1 -26 6 -4 9 -4 5 1 -4 4 -3 14 4 22 6 7 9
15 7 18 -3 2 -10 -4 -17 -15z"/>
<path d="M3493 67 c-1 -11 -1 -18 0 -16 2 2 8 11 15 20 9 12 9 16 -1 16 -7 0
-14 -9 -14 -20z"/>
<path d="M3614 80 c2 -16 20 -14 24 2 3 10 2 10 -6 -1 -7 -9 -11 -10 -15 -2
-4 7 -5 8 -3 1z"/>
<path d="M3670 81 c0 -5 11 -8 25 -8 30 0 28 6 -4 12 -11 2 -21 0 -21 -4z"/>
<path d="M3733 67 c-1 -11 -1 -18 0 -16 2 2 8 11 15 20 9 12 9 16 -1 16 -7 0
-14 -9 -14 -20z"/>
<path d="M3870 81 c0 -7 -5 -9 -12 -5 -7 5 -8 3 -3 -5 5 -9 10 -10 18 -2 6 6
8 14 4 18 -4 3 -7 1 -7 -6z"/>
<path d="M3910 80 c0 -5 5 -10 11 -10 5 0 7 5 4 10 -3 6 -8 10 -11 10 -2 0 -4
-4 -4 -10z"/>
<path d="M3942 70 c-9 -15 -9 -21 1 -26 6 -4 9 -4 5 1 -4 4 -3 14 4 22 6 7 9
15 7 18 -3 2 -10 -4 -17 -15z"/>
<path d="M3973 67 c-1 -11 -1 -18 0 -16 2 2 8 11 15 20 9 12 9 16 -1 16 -7 0
-14 -9 -14 -20z"/>
<path d="M4094 80 c2 -16 20 -14 24 2 3 10 2 10 -6 -1 -7 -9 -11 -10 -15 -2
-4 7 -5 8 -3 1z"/>
<path d="M4150 81 c0 -5 11 -8 25 -8 30 0 28 6 -4 12 -11 2 -21 0 -21 -4z"/>
<path d="M4213 67 c-1 -11 -1 -18 0 -16 2 2 8 11 15 20 9 12 9 16 -1 16 -7 0
-14 -9 -14 -20z"/>
<path d="M4350 81 c0 -7 -5 -9 -12 -5 -7 5 -8 3 -3 -5 5 -9 10 -10 18 -2 6 6
8 14 4 18 -4 3 -7 1 -7 -6z"/>
<path d="M4390 80 c0 -5 5 -10 11 -10 5 0 7 5 4 10 -3 6 -8 10 -11 10 -2 0 -4
-4 -4 -10z"/>
<path d="M4422 70 c-9 -15 -9 -21 1 -26 6 -4 9 -4 5 1 -4 4 -3 14 4 22 6 7 9
15 7 18 -3 2 -10 -4 -17 -15z"/>
<path d="M4453 67 c-1 -11 -1 -18 0 -16 2 2 8 11 15 20 9 12 9 16 -1 16 -7 0
-14 -9 -14 -20z"/>
<path d="M4574 80 c2 -16 20 -14 24 2 3 10 2 10 -6 -1 -7 -9 -11 -10 -15 -2
-4 7 -5 8 -3 1z"/>
<path d="M4630 81 c0 -5 11 -8 25 -8 30 0 28 6 -4 12 -11 2 -21 0 -21 -4z"/>
<path d="M4693 67 c-1 -11 -1 -18 0 -16 2 2 8 11 15 20 9 12 9 16 -1 16 -7 0
-14 -9 -14 -20z"/>
<path d="M4830 79 c0 -5 -5 -7 -12 -3 -7 4 -8 3 -4 -5 6 -9 11 -9 22 0 17 14
18 19 4 19 -5 0 -10 -5 -10 -11z"/>
<path d="M4874 79 c-8 -14 14 -19 25 -6 8 10 7 14 -5 14 -8 0 -17 -4 -20 -8z"/>
<path d="M150 69 c0 -5 -5 -7 -12 -3 -7 4 -8 3 -4 -5 6 -9 11 -9 22 0 17 14
18 19 4 19 -5 0 -10 -5 -10 -11z"/>
<path d="M195 70 c-16 -7 -17 -9 -3 -9 9 -1 20 4 23 9 7 11 7 11 -20 0z"/>
<path d="M420 70 c8 -5 22 -9 30 -9 10 0 8 3 -5 9 -27 12 -43 12 -25 0z"/>
<path d="M654 63 c1 -7 6 -16 11 -20 4 -4 5 -2 1 5 -4 7 -1 12 8 12 8 0 17 3
19 8 3 4 -5 7 -18 7 -12 0 -22 -5 -21 -12z"/>
<path d="M900 70 c8 -5 22 -9 30 -9 10 0 8 3 -5 9 -27 12 -43 12 -25 0z"/>
<path d="M1134 63 c1 -7 6 -16 11 -20 4 -4 5 -2 1 5 -4 7 -1 12 8 12 8 0 17 3
19 8 3 4 -5 7 -18 7 -12 0 -22 -5 -21 -12z"/>
<path d="M1380 70 c8 -5 22 -9 30 -9 10 0 8 3 -5 9 -27 12 -43 12 -25 0z"/>
<path d="M1614 63 c1 -7 6 -16 11 -20 4 -4 5 -2 1 5 -4 7 -1 12 8 12 8 0 17 3
19 8 3 4 -5 7 -18 7 -12 0 -22 -5 -21 -12z"/>
<path d="M1860 70 c8 -5 22 -9 30 -9 10 0 8 3 -5 9 -27 12 -43 12 -25 0z"/>
<path d="M2094 63 c1 -7 6 -16 11 -20 4 -4 5 -2 1 5 -4 7 -1 12 8 12 8 0 17 3
19 8 3 4 -5 7 -18 7 -12 0 -22 -5 -21 -12z"/>
<path d="M2340 70 c8 -5 22 -9 30 -9 10 0 8 3 -5 9 -27 12 -43 12 -25 0z"/>
<path d="M2574 63 c1 -7 6 -16 11 -20 4 -4 5 -2 1 5 -4 7 -1 12 8 12 8 0 17 3
19 8 3 4 -5 7 -18 7 -12 0 -22 -5 -21 -12z"/>
<path d="M2820 70 c8 -5 22 -9 30 -9 10 0 8 3 -5 9 -27 12 -43 12 -25 0z"/>
<path d="M3054 63 c1 -7 6 -16 11 -20 4 -4 5 -2 1 5 -4 7 -1 12 8 12 8 0 17 3
19 8 3 4 -5 7 -18 7 -12 0 -22 -5 -21 -12z"/>
<path d="M3300 70 c8 -5 22 -9 30 -9 10 0 8 3 -5 9 -27 12 -43 12 -25 0z"/>
<path d="M3534 63 c1 -7 6 -16 11 -20 4 -4 5 -2 1 5 -4 7 -1 12 8 12 8 0 17 3
19 8 3 4 -5 7 -18 7 -12 0 -22 -5 -21 -12z"/>
<path d="M3780 70 c8 -5 22 -9 30 -9 10 0 8 3 -5 9 -27 12 -43 12 -25 0z"/>
<path d="M4014 63 c1 -7 6 -16 11 -20 4 -4 5 -2 1 5 -4 7 -1 12 8 12 8 0 17 3
19 8 3 4 -5 7 -18 7 -12 0 -22 -5 -21 -12z"/>
<path d="M4260 70 c8 -5 22 -9 30 -9 10 0 8 3 -5 9 -27 12 -43 12 -25 0z"/>
<path d="M4494 63 c1 -7 6 -16 11 -20 4 -4 5 -2 1 5 -4 7 -1 12 8 12 8 0 17 3
19 8 3 4 -5 7 -18 7 -12 0 -22 -5 -21 -12z"/>
<path d="M4740 70 c8 -5 22 -9 30 -9 10 0 8 3 -5 9 -27 12 -43 12 -25 0z"/>
<path d="M530 60 c0 -5 5 -10 11 -10 5 0 7 5 4 10 -3 6 -8 10 -11 10 -2 0 -4
-4 -4 -10z"/>
<path d="M1010 60 c0 -5 5 -10 11 -10 5 0 7 5 4 10 -3 6 -8 10 -11 10 -2 0 -4
-4 -4 -10z"/>
<path d="M1490 60 c0 -5 5 -10 11 -10 5 0 7 5 4 10 -3 6 -8 10 -11 10 -2 0 -4
-4 -4 -10z"/>
<path d="M1970 60 c0 -5 5 -10 11 -10 5 0 7 5 4 10 -3 6 -8 10 -11 10 -2 0 -4
-4 -4 -10z"/>
<path d="M2450 60 c0 -5 5 -10 11 -10 5 0 7 5 4 10 -3 6 -8 10 -11 10 -2 0 -4
-4 -4 -10z"/>
<path d="M2930 60 c0 -5 5 -10 11 -10 5 0 7 5 4 10 -3 6 -8 10 -11 10 -2 0 -4
-4 -4 -10z"/>
<path d="M3410 60 c0 -5 5 -10 11 -10 5 0 7 5 4 10 -3 6 -8 10 -11 10 -2 0 -4
-4 -4 -10z"/>
<path d="M3890 60 c0 -5 5 -10 11 -10 5 0 7 5 4 10 -3 6 -8 10 -11 10 -2 0 -4
-4 -4 -10z"/>
<path d="M4370 60 c0 -5 5 -10 11 -10 5 0 7 5 4 10 -3 6 -8 10 -11 10 -2 0 -4
-4 -4 -10z"/>
<path d="M4850 60 c0 -5 5 -10 11 -10 5 0 7 5 4 10 -3 6 -8 10 -11 10 -2 0 -4
-4 -4 -10z"/>
<path d="M4910 60 c0 -5 5 -10 11 -10 5 0 7 5 4 10 -3 6 -8 10 -11 10 -2 0 -4
-4 -4 -10z"/>
<path d="M234 40 c0 -13 4 -16 10 -10 7 7 7 13 0 20 -6 6 -10 3 -10 -10z"/>
<path d="M714 40 c0 -13 4 -16 10 -10 7 7 7 13 0 20 -6 6 -10 3 -10 -10z"/>
<path d="M1194 40 c0 -13 4 -16 10 -10 7 7 7 13 0 20 -6 6 -10 3 -10 -10z"/>
<path d="M1674 40 c0 -13 4 -16 10 -10 7 7 7 13 0 20 -6 6 -10 3 -10 -10z"/>
<path d="M2154 40 c0 -13 4 -16 10 -10 7 7 7 13 0 20 -6 6 -10 3 -10 -10z"/>
<path d="M2634 40 c0 -13 4 -16 10 -10 7 7 7 13 0 20 -6 6 -10 3 -10 -10z"/>
<path d="M3114 40 c0 -13 4 -16 10 -10 7 7 7 13 0 20 -6 6 -10 3 -10 -10z"/>
<path d="M3594 40 c0 -13 4 -16 10 -10 7 7 7 13 0 20 -6 6 -10 3 -10 -10z"/>
<path d="M4074 40 c0 -13 4 -16 10 -10 7 7 7 13 0 20 -6 6 -10 3 -10 -10z"/>
<path d="M4554 40 c0 -13 4 -16 10 -10 7 7 7 13 0 20 -6 6 -10 3 -10 -10z"/>
</g>
</svg>
