<?xml version="1.0" standalone="no"?>
<!DOCTYPE svg PUBLIC "-//W3C//DTD SVG 20010904//EN"
 "http://www.w3.org/TR/2001/REC-SVG-20010904/DTD/svg10.dtd">
<svg version="1.0" xmlns="http://www.w3.org/2000/svg"
 width="512.000000pt" height="512.000000pt" viewBox="0 0 512.000000 512.000000"
 preserveAspectRatio="xMidYMid meet">
<metadata>
Created by potrace 1.11, written by Peter Selinger 2001-2013
</metadata>
<g transform="translate(0.000000,512.000000) scale(0.100000,-0.100000)"
fill="#000000" stroke="none">
<path d="M429 5108 c0 -7 -1 -103 -1 -213 l-1 -201 -166 0 -166 -1 0 -34 c1
-19 4 -52 7 -74 10 -61 37 -211 42 -237 3 -13 8 -42 10 -66 3 -24 13 -84 22
-135 8 -51 16 -100 17 -109 1 -10 5 -18 10 -18 4 0 6 -4 3 -9 -3 -5 -1 -33 4
-62 5 -30 12 -72 15 -94 3 -22 11 -71 18 -110 l13 -70 127 -3 126 -3 3 -52 c2
-29 2 -816 0 -1750 l-2 -1697 -255 0 -255 0 0 -85 0 -85 2560 0 2560 0 0 85 0
85 -128 0 -127 0 0 1108 0 1107 -1832 3 c-1456 2 -1833 5 -1834 15 0 6 -2 294
-3 640 l-2 627 128 0 c70 0 128 3 129 8 0 4 2 14 4 22 7 34 15 77 20 120 3 25
7 52 10 60 2 8 7 33 10 55 3 23 7 52 10 65 6 31 22 123 30 170 3 19 8 53 12
75 4 22 7 56 7 77 1 20 3 34 6 31 2 -2 17 71 32 163 15 93 25 170 22 173 -2 3
-98 5 -212 5 l-208 -1 1 116 c0 64 -1 122 -3 129 -3 8 -29 12 -86 12 l-82 0 1
-128 0 -127 -45 -3 -45 -2 3 130 3 130 -85 0 -85 0 -3 -127 -3 -128 -85 -1
-85 -1 1 214 1 213 -84 0 c-59 0 -83 -4 -84 -12z"/>
<path d="M3245 4568 c-88 -23 -162 -43 -165 -45 -2 -2 74 -82 170 -178 96 -96
172 -176 170 -178 -3 -2 -41 -21 -84 -41 l-79 -37 -263 131 -264 132 -125 -42
c-69 -23 -125 -43 -125 -45 0 -2 81 -84 180 -184 99 -99 180 -182 180 -185 0
-3 -25 -17 -55 -31 l-55 -25 42 -85 42 -85 301 0 300 0 170 85 c93 46 170 83
171 82 1 -1 39 -134 84 -294 46 -163 88 -293 94 -293 6 1 83 38 171 83 l160
82 1 340 0 340 171 85 170 85 87 173 86 172 -211 0 -211 0 -187 -87 c-102 -48
-190 -90 -194 -94 -5 -4 -135 36 -289 87 -155 52 -282 94 -282 93 -1 0 -73
-19 -161 -41z"/>
</g>
</svg>
